<svg id="Layer_1" data-name="Layer 1" xmlns="http://www.w3.org/2000/svg" viewBox="0 0 36 36"><defs><style>.cls-1{fill:#f27686;}.cls-2{fill:#fede51;}</style></defs><path class="cls-1" d="M15,27.15H2.19A2,2,0,0,1,0,25V4A2,2,0,0,1,2.16,1.89H33.85A2,2,0,0,1,36,4V25a2,2,0,0,1-2.17,2.17H21l.46,1.92c.21.83.42,1.66.61,2.5a.28.28,0,0,0,.33.25h2.23a1.44,1.44,0,0,1,1.51,1.51c0,.17,0,.34,0,.51s-.11.29-.29.28a.25.25,0,0,1-.27-.29v-.34c0-.79-.32-1.1-1.1-1.1H16.64c-1.82,0-3.64,0-5.45,0a.91.91,0,0,0-1,1,1.66,1.66,0,0,1,0,.45.42.42,0,0,1-.25.24c-.09,0-.26-.1-.27-.18A1.85,1.85,0,0,1,10,32.21a1.44,1.44,0,0,1,1-.4h2.58c.15,0,.26,0,.3-.21.35-1.45.7-2.89,1.06-4.33Zm4.67-16.27h-.6a1.16,1.16,0,0,1-.18-2.32c1-.13,1.93-.24,2.89-.39a2.87,2.87,0,0,1,1.91.28A11,11,0,0,0,24.94,9a.7.7,0,0,0,.45,0c.73-.18,1.46-.38,2.19-.58L33.44,6.9a.77.77,0,0,1,1.05.6c.11.39.21.77.31,1.15a.78.78,0,0,1-.64,1.1L28.1,11.37l-.27.1,2.74,4.15c.08-.15.15-.25.21-.36.19-.34.34-.37.62-.1l3.78,3.66.24.2c0-.13,0-.21,0-.29q0-7.36,0-14.73a1.46,1.46,0,0,0-1.57-1.55H2.14A1.46,1.46,0,0,0,.57,4q0,8.21,0,16.43c0,.1,0,.2,0,.3h2v-.3a.83.83,0,0,1,.75-.83,4.49,4.49,0,0,1,.82,0,.83.83,0,0,1,.74.79c0,.11,0,.22,0,.33H27l0-.06c-.21-.2-.43-.39-.64-.6s-.19-.38.06-.54l.33-.22-.22-.09a7.92,7.92,0,0,1-3.24-2.06c-1.05-1.1-2.09-2.22-3.12-3.34-.11-.12-.16-.3-.26-.43s-.15-.2-.24-.21L18.05,13a.61.61,0,0,1-.38-.22c-.11-.18.06-.3.2-.41ZM5,21.35a5.46,5.46,0,0,1-.13.94.75.75,0,0,1-.75.5A1.78,1.78,0,0,1,3,22.62c-.45-.32-.3-.83-.35-1.26h-2v2.31h3c.21,0,.4,0,.4.29s-.19.28-.39.28H.52a7.58,7.58,0,0,0,.16,1.4,1.42,1.42,0,0,0,1.51.95H34a1.43,1.43,0,0,0,1.37-1.07,8.67,8.67,0,0,0,.09-1.28H9.61a1.08,1.08,0,0,1-.36,0c-.1,0-.23-.15-.23-.23a.47.47,0,0,1,.19-.29.75.75,0,0,1,.34,0H35.42V21.35Zm20.17-9.18.28.29a1.45,1.45,0,1,1-2.12,2l-1.76-1.75a.59.59,0,0,0-.86-.08.6.6,0,0,0,0,.92q1.45,1.58,2.93,3.14a7.46,7.46,0,0,0,3.54,2.17.52.52,0,0,0,.39,0,9.63,9.63,0,0,0,2.58-2.51.33.33,0,0,0,0-.29q-1.38-2.13-2.79-4.25c0-.06-.13-.13-.18-.11C26.49,11.8,25.84,12,25.13,12.17ZM14.46,31.8h7.05a1,1,0,0,0,0-.18c-.35-1.43-.71-2.85-1.05-4.28,0-.2-.16-.19-.3-.19h-4.3c-.2,0-.27.06-.32.25-.28,1.21-.58,2.41-.88,3.62Zm7-19.88a1.87,1.87,0,0,1,.34.25.51.51,0,0,0,.62.14l7.09-1.9,1.95-.53-.16-.59-.82.21c-.18.05-.35,0-.4-.19s.08-.31.27-.36.52-.14.81-.22L31,8.14,20.68,10.91l.16.59.27-.06,6-1.61,1.66-.45c.19-.05.35,0,.41.17s-.07.33-.27.38l-.08,0-3.63,1Zm5.48,8c.24.22.46.4.65.61a.68.68,0,0,0,.66.26c.26,0,.56,0,.77-.08a8.31,8.31,0,0,0,3.29-3.58.24.24,0,0,0,0-.22c-.37-.39-.75-.76-1.15-1.17A11.56,11.56,0,0,1,27,19.9Zm3.13.85h5.36a4.51,4.51,0,0,1,0-.52.73.73,0,0,0-.28-.66c-.71-.65-1.41-1.33-2.11-2-.07-.06-.14-.11-.22-.19A10.23,10.23,0,0,1,30.08,20.75ZM24.19,9.38V9.31A6.21,6.21,0,0,1,23.46,9a2.24,2.24,0,0,0-1.66-.23c-.23,0-.47.06-.7.1l-2.16.28a.61.61,0,0,0-.54.62.57.57,0,0,0,.58.57,11.52,11.52,0,0,0,2.74-.26C22.54,9.8,23.37,9.6,24.19,9.38ZM22.6,12.85a17.32,17.32,0,0,0,1.25,1.31.85.85,0,0,0,1.34-.46,1.34,1.34,0,0,0-.69-1.33h-.09ZM4.35,21.2h0v-.26c0-.78,0-.81-.83-.76-.23,0-.35.12-.35.35s0,.62,0,.93c0,.81,0,.77.84.77a.32.32,0,0,0,.34-.36ZM33.17,9.43c.34-.09.64-.16.93-.26a.39.39,0,0,0,.17-.29c-.1-.43-.21-.86-.35-1.28a.33.33,0,0,0-.23-.17c-.33.07-.65.17-1,.26Zm-14.55,3c.26,0,.45.06.64.1.39.09.77.15,1-.33,0,0,.07-.05.08-.08a.29.29,0,0,0,.06-.17c-.06-.24-.13-.48-.21-.77ZM31.55,8,32,9.74l.59-.18-.47-1.73Z"/><path class="cls-2" d="M11.91,9.94c.33-.77.65-1.55,1-2.33a.61.61,0,0,1,.31-.32c.21,0,.27.18.33.33l.9,2.11a.51.51,0,0,0,.15.22c.08-.53.15-1.07.22-1.6s.19-1.34.27-2c0-.2.1-.35.32-.33s.25.21.22.4l-.51,3.84A6.67,6.67,0,0,1,15,11c0,.12-.14.29-.24.3a.45.45,0,0,1-.31-.22c-.38-.87-.75-1.74-1.12-2.61a1.29,1.29,0,0,0-.12-.23c-.31.75-.61,1.45-.91,2.15a6.21,6.21,0,0,1-.31.7.46.46,0,0,1-.31.21c-.08,0-.22-.17-.23-.28C11.23,9.53,11,8,10.83,6.46a.63.63,0,0,1,.07-.36A.28.28,0,0,1,11.15,6a.42.42,0,0,1,.2.29c.11.71.2,1.43.29,2.14L11.85,10Z"/><path class="cls-2" d="M6.17,8.39A2.91,2.91,0,0,1,7,6.34a1.9,1.9,0,0,1,2.71,0,3.25,3.25,0,0,1,0,4.49A1.9,1.9,0,0,1,7,10.75,3.18,3.18,0,0,1,6.17,8.39Zm.54.14a2.61,2.61,0,0,0,.57,1.7,1.38,1.38,0,0,0,2.25,0,2.75,2.75,0,0,0,0-3.39,1.38,1.38,0,0,0-2.18,0A2.6,2.6,0,0,0,6.71,8.53Z"/><path class="cls-2" d="M6.45,15.38a2.82,2.82,0,0,1,.71-1.65,1.79,1.79,0,0,1,2.77,0,3.16,3.16,0,0,1,0,4,1.79,1.79,0,0,1-2.78,0A3.33,3.33,0,0,1,6.45,15.38Zm3.65.36a2.43,2.43,0,0,0-.55-1.62,1.24,1.24,0,0,0-2,0,2.62,2.62,0,0,0,0,3.3,1.23,1.23,0,0,0,1.9,0A2.42,2.42,0,0,0,10.1,15.74Z"/><path class="cls-2" d="M5.32,8.27V6.51c0-.09,0-.2,0-.27a.42.42,0,0,1,.26-.18c.08,0,.18.12.24.2s0,.15,0,.22v4.23c0,.19,0,.37-.27.37s-.28-.18-.28-.38V8.86H3.06v1.55a1.29,1.29,0,0,1,0,.44.39.39,0,0,1-.25.22c-.09,0-.19-.13-.26-.22s0-.12,0-.18V6.46c0-.09,0-.21,0-.26s.22-.16.28-.13a.41.41,0,0,1,.21.29c0,.5,0,1,0,1.51v.4Z"/><path class="cls-2" d="M3.92,13.89H2.66c-.19,0-.41,0-.41-.26s.2-.28.4-.28H6c.2,0,.39,0,.39.27s-.19.27-.39.27H4.48c0,.13,0,.23,0,.34v3.69c0,.09,0,.2,0,.26a.42.42,0,0,1-.26.19.41.41,0,0,1-.25-.2.6.6,0,0,1,0-.27v-4Z"/><path class="cls-2" d="M14.31,16.72a.82.82,0,0,1,.83.84.82.82,0,0,1-.84.82.83.83,0,0,1-.83-.83A.84.84,0,0,1,14.31,16.72Zm-.06,1.16h.13c.07-.11.19-.21.2-.33a.23.23,0,0,0-.28-.27.41.41,0,0,0-.26.27C14,17.66,14.18,17.77,14.25,17.88Z"/><path class="cls-2" d="M11.77,16.72a.83.83,0,1,1,0,1.66.81.81,0,0,1-.84-.82A.82.82,0,0,1,11.77,16.72Zm.42.82c-.19-.13-.3-.25-.41-.26a.24.24,0,0,0-.28.28c0,.18.12.31.3.27S12,17.68,12.19,17.54Z"/><path class="cls-2" d="M17.67,17.55a.84.84,0,0,1-1.67,0,.84.84,0,1,1,1.67,0Zm-.51.06v-.12c-.11-.08-.23-.21-.34-.2s-.23.16-.25.27a.23.23,0,0,0,.28.27C17,17.8,17.06,17.68,17.16,17.61Z"/><path class="cls-1" d="M21.86,24h.9c.19,0,.34.06.34.27s-.14.28-.33.27H20.94c-.18,0-.33,0-.34-.26s.15-.28.33-.28Z"/></svg>