<svg id="Layer_1" data-name="Layer 1" xmlns="http://www.w3.org/2000/svg" viewBox="0 0 36 36"><defs><style>.cls-1{fill:#a3d069;}.cls-2{fill:#74cee0;}.cls-3{fill:#fede51;}.cls-4{fill:#f27686;}</style></defs><path class="cls-1" d="M18,4.62h16.3A1.67,1.67,0,0,1,36,5.93a2.21,2.21,0,0,1,0,.35V26.14a1.66,1.66,0,0,1-1.55,1.69l-.31,0H1.74A1.66,1.66,0,0,1,.05,26.53a4.79,4.79,0,0,1,0-.93V6.34A1.67,1.67,0,0,1,1.72,4.62ZM2.08,25.74H33.93v-19H2.08Z"/><path class="cls-1" d="M36,29.19a8.49,8.49,0,0,1,0,1,1.36,1.36,0,0,1-1.36,1.18H1.39A1.4,1.4,0,0,1,0,30v-.8H16.21v.39h3.58v-.39Z"/><path class="cls-2" d="M11.29,11.69A3.65,3.65,0,1,1,7.73,8.06,3.63,3.63,0,0,1,11.29,11.69Zm-4-.36H5.55a.34.34,0,0,0-.35.34.35.35,0,0,0,.35.35H7.29v1.68a.34.34,0,0,0,.36.38A.34.34,0,0,0,8,13.71V12H9.67a.36.36,0,0,0,.4-.35c0-.21-.15-.34-.4-.35H8V9.6a.32.32,0,0,0-.32-.33.34.34,0,0,0-.38.3c0,.12,0,.24,0,.35Z"/><path class="cls-2" d="M19.35,13.79h-.21c0,.05,0,.09,0,.14v2.61a.48.48,0,0,1-.49.52.49.49,0,0,1-.5-.53V13.59a.49.49,0,0,1,.52-.53h3.89a.49.49,0,0,1,.53.52v3a.5.5,0,1,1-1,0c0-.86,0-1.72,0-2.57V13.8h-.26A2.11,2.11,0,0,1,22,14.91c0,1.78,0,3.56,0,5.34a.58.58,0,0,1-.55.58.55.55,0,0,1-.57-.57v-1.7h-.48v1.68a.56.56,0,0,1-.57.59.57.57,0,0,1-.56-.6V16.66c0-.74,0-1.48,0-2.22A5.13,5.13,0,0,1,19.35,13.79Z"/><path class="cls-3" d="M16.82,16.55v.82H3.25v-.82Z"/><path class="cls-3" d="M3.25,24.08v-.82H16.82v.82Z"/><path class="cls-3" d="M3.25,22.4v-.81H16.82v.81Z"/><path class="cls-3" d="M16.82,19.91v.81H3.25v-.81Z"/><path class="cls-3" d="M16.82,18.23v.82H3.26v-.82Z"/><path class="cls-2" d="M21.74,11.53a1.14,1.14,0,0,1-1.13,1.13,1.12,1.12,0,0,1-1.13-1.12,1.13,1.13,0,1,1,2.26,0Z"/><path class="cls-3" d="M13,10.8V10h3.82v.82Z"/><path class="cls-3" d="M13,9.11V8.3h3.81v.81Z"/><path class="cls-3" d="M13,12.47v-.81h3.82v.81Z"/><path class="cls-3" d="M13,15.82V15h3.81v.81Z"/><path class="cls-3" d="M16.82,13.33v.82H13v-.82Z"/><path class="cls-4" d="M18.7,9.12V8.3H30v.82Z"/><path class="cls-4" d="M32.19,20.9v.81H24.64V20.9Z"/><path class="cls-4" d="M26.54,14v-.8h5.65V14Z"/><path class="cls-4" d="M30,9.61v.81H24.36V9.61Z"/><path class="cls-4" d="M32.19,18v.81H28.26V18Z"/><path class="cls-4" d="M29.37,20.25v-.81h2.82v.81Z"/><path class="cls-4" d="M32.19,15.87H29.38v-.81h2.81Z"/><path class="cls-4" d="M29.37,17.33v-.81h2.82v.81Z"/><path class="cls-4" d="M32.19,23.66v.82H29.57v-.82Z"/><path class="cls-4" d="M22.88,24.48v-.83H25.5v.83Z"/><path class="cls-4" d="M28.84,24.49H26.23v-.84h2.61Z"/></svg>