<svg id="Layer_1" data-name="Layer 1" xmlns="http://www.w3.org/2000/svg" viewBox="0 0 36 36"><defs><style>.cls-1{fill:#ea5179;}.cls-2{fill:#f4da59;}.cls-3{fill:#b4e2eb;}.cls-4{fill:#0f8370;}.cls-5{fill:#030303;}.cls-6{fill:#10846e;}.cls-7{fill:#0c0c0c;}.cls-8{fill:#fff;}.cls-9{fill:#f7d859;}.cls-10{fill:#0c0d0c;}</style></defs><path class="cls-1" d="M8.93,3.83A83.87,83.87,0,0,0,27,3.83c0,.33.06.55.06.77,0,3.62,0,7.23,0,10.85,0,.52-.06.8-.7.87a83.07,83.07,0,0,1-16.76,0c-.24,0-.64-.33-.64-.51C8.92,11.84,8.93,7.92,8.93,3.83ZM19.77,15a2,2,0,0,0,2-1.18c.37-.8,0-1.39-.53-2a2.88,2.88,0,0,1-.5-.95,2.86,2.86,0,0,0-2.78-1.95,2.9,2.9,0,0,0-2.69,2,3,3,0,0,1-.51.94,1.72,1.72,0,0,0-.5,2,1.77,1.77,0,0,0,2,1.13A7.07,7.07,0,0,1,19.77,15ZM14.53,8.37h-1V9.88h1Zm2.23-1.75c-.25,1.4-1,.44,0,0Zm5,2.24h0c1.08.12.44,1.31,0,0Zm-2.38-2Z"/><path class="cls-2" d="M29.83,7.34H35v2.72c0,1.33,0,2.65,0,4a.7.7,0,0,1-.64.81,6.55,6.55,0,0,1-4-.23.81.81,0,0,1-.47-.57C29.82,11.8,29.83,9.54,29.83,7.34Z"/><path class="cls-3" d="M1,11.86h5v1.38c0,1.69,0,3.39,0,5.08a.78.78,0,0,1-.65.9,6.6,6.6,0,0,1-3.76.1c-.24-.07-.6-.4-.6-.62C1,16.45,1,14.2,1,11.86Z"/><path class="cls-4" d="M27.43,28.49c.16-.62.29-1.13.41-1.65.08-.33,0-.87.21-1a4.38,4.38,0,0,1,1.59-.44,4,4,0,0,1,1.65,0c1.15.37,2.27.86,3.39,1.33.12.06.21.34.22.52,0,1.3,0,2.59,0,4-1.3,0-2.53,0-3.76,0a.48.48,0,0,1-.39-.24c-.42-1.36-1.6-1.8-2.76-2.29C27.8,28.67,27.6,28.57,27.43,28.49Z"/><path class="cls-5" d="M33.18,31.42h-2a.62.62,0,0,1-.5-.33c-.39-1.25-1.44-1.69-2.54-2.15L28,28.86l-.42-.19-.16-.07-.09,0,0-.1c.05-.19.1-.38.14-.55l.28-1.09c0-.11,0-.25,0-.38,0-.3.05-.58.23-.68a4.61,4.61,0,0,1,1.63-.45,4,4,0,0,1,1.69,0,32.07,32.07,0,0,1,3.1,1.2l.3.13c.21.09.29.45.3.63,0,1,0,1.95,0,3v1.14H33.18Zm-5.61-3,.07,0,.41.18.15.06c1.11.47,2.25.95,2.68,2.31a.37.37,0,0,0,.27.15c1,0,1.89,0,2.88,0h.76v-.9c0-1,0-2,0-3a.71.71,0,0,0-.15-.42l-.3-.13c-1-.42-2-.86-3.08-1.19a3.81,3.81,0,0,0-1.59,0,4.72,4.72,0,0,0-1.55.43c-.06,0-.09.32-.1.48a2.68,2.68,0,0,1-.05.42c-.08.36-.18.72-.27,1.1Q27.63,28.18,27.57,28.42Z"/><path class="cls-6" d="M.91,32c.2-.51.24-1,.51-1.24a6,6,0,0,1,3.7-1.5,7.18,7.18,0,0,1,3.9,1c.77.44.91.77.79,1.7Z"/><path class="cls-5" d="M9.91,32.16H.74L.8,32c.06-.17.11-.33.16-.49a1.43,1.43,0,0,1,.38-.8,6.27,6.27,0,0,1,3.78-1.53,7.35,7.35,0,0,1,4,1.05c.8.46,1,.83.85,1.83Zm-8.83-.24H9.7A1.21,1.21,0,0,0,9,30.44a7.17,7.17,0,0,0-3.83-1A5.91,5.91,0,0,0,1.49,30.9a1.27,1.27,0,0,0-.3.67C1.16,31.69,1.12,31.8,1.08,31.92Z"/><path class="cls-3" d="M29.7,32.05H21a1.34,1.34,0,0,1,.74-1.64,7.14,7.14,0,0,1,3.52-1.11A7.88,7.88,0,0,1,29,30.39,1.35,1.35,0,0,1,29.7,32.05Z"/><path class="cls-7" d="M29.79,32.17h-8.9l0-.09a1.46,1.46,0,0,1,.81-1.78,7.35,7.35,0,0,1,3.58-1.12A8.14,8.14,0,0,1,29,30.28a1.47,1.47,0,0,1,.81,1.79Zm-8.71-.24H29.6a1.22,1.22,0,0,0-.7-1.44,7.87,7.87,0,0,0-3.66-1.07h0a7.13,7.13,0,0,0-3.44,1.09A1.22,1.22,0,0,0,21.08,31.93Z"/><path class="cls-2" d="M19.79,32.05H11.07a1.34,1.34,0,0,1,.73-1.65,7.2,7.2,0,0,1,3.54-1.1,8,8,0,0,1,3.57,1A1.44,1.44,0,0,1,19.79,32.05Z"/><path class="cls-5" d="M19.89,32.17H11l0-.09a1.45,1.45,0,0,1,.79-1.79h0a7.15,7.15,0,0,1,3.57-1.1,8.17,8.17,0,0,1,3.63,1,1.58,1.58,0,0,1,.94,1.87Zm-8.72-.24h8.52a1.3,1.3,0,0,0-.83-1.5,7.77,7.77,0,0,0-3.52-1,7,7,0,0,0-3.46,1.08h0A1.2,1.2,0,0,0,11.17,31.93Z"/><path class="cls-8" d="M20.39,30l-2.83-1.5.52-2.68a8.27,8.27,0,0,1,4.63-.07l.48,2.74Z"/><path class="cls-5" d="M20.39,30.09l-3-1.57L18,25.69l.06,0a8.09,8.09,0,0,1,4.63-.08l.14,0,.51,2.91Zm-2.7-1.7,2.7,1.42,2.67-1.43-.46-2.57a8,8,0,0,0-4.41.05Z"/><path class="cls-9" d="M13.38,28.38,10.46,30,7.67,28.47A8,8,0,0,1,8,26.14c.18-.4,1-.62,1.51-.73a15.59,15.59,0,0,1,1.81,0,1.33,1.33,0,0,1,1.57,1.38,3.91,3.91,0,0,0,.15.83C13.15,27.87,13.28,28.13,13.38,28.38Z"/><path class="cls-5" d="M10.46,30.09,7.54,28.54v-.08c0-.23,0-.47.06-.71a4.38,4.38,0,0,1,.31-1.66c.16-.35.68-.61,1.6-.79a3.9,3.9,0,0,1,1.08,0,6.1,6.1,0,0,0,.74,0,1.58,1.58,0,0,1,1.22.35A1.55,1.55,0,0,1,13,26.78a3.18,3.18,0,0,0,.15.8,5.55,5.55,0,0,0,.2.52,1.6,1.6,0,0,1,.1.23l0,.1ZM7.8,28.4l2.66,1.42,2.77-1.5-.06-.12a3.4,3.4,0,0,1-.21-.56,3.6,3.6,0,0,1-.16-.85,1.3,1.3,0,0,0-.4-1,1.35,1.35,0,0,0-1-.29,6.77,6.77,0,0,1-.78,0,4.31,4.31,0,0,0-1,0c-1,.21-1.34.47-1.42.66a4.27,4.27,0,0,0-.29,1.58C7.83,28,7.82,28.19,7.8,28.4Z"/><path d="M36,15.49V24c-1.12.22-1.15.19-1.15-.88,0-2.09,0-4.18,0-6.27C34.8,16,35.06,15.52,36,15.49Z"/><path d="M1.12,28.49H0V20c.74,0,1.15.24,1.14,1.12C1.09,23.54,1.12,26,1.12,28.49Z"/><path class="cls-8" d="M5.49,28.41A1.66,1.66,0,0,1,4,26.68a1.87,1.87,0,0,1,.41-1.22A1.41,1.41,0,0,1,5.48,25h0A1.61,1.61,0,0,1,7,26.66,1.71,1.71,0,0,1,5.5,28.41Z"/><path class="cls-10" d="M5.49,25A1.55,1.55,0,0,1,7,26.66,1.63,1.63,0,0,1,5.5,28.35h0a1.6,1.6,0,0,1-1.44-1.67A1.52,1.52,0,0,1,5.48,25h0m0-.1h0a1.46,1.46,0,0,0-1.11.51A2,2,0,0,0,4,26.69a1.69,1.69,0,0,0,1.54,1.77h0A1.52,1.52,0,0,0,6.6,27.9a1.88,1.88,0,0,0,.46-1.24,1.66,1.66,0,0,0-1.57-1.74Z"/><path class="cls-8" d="M25.35,28.4a1.65,1.65,0,0,1-1.51-1.71A1.6,1.6,0,0,1,25.33,25h0a1.41,1.41,0,0,1,1.06.49,1.89,1.89,0,0,1,.45,1.2A1.86,1.86,0,0,1,26.35,28a1.38,1.38,0,0,1-1,.45Z"/><path class="cls-10" d="M25.36,25a1.58,1.58,0,0,1,1.46,1.64,1.64,1.64,0,0,1-1.46,1.69h0a1.61,1.61,0,0,1-1.46-1.66A1.56,1.56,0,0,1,25.33,25h0m0-.1v0h0a1.65,1.65,0,0,0-1.54,1.77,1.7,1.7,0,0,0,1.56,1.76h0a1.45,1.45,0,0,0,1-.47,1.86,1.86,0,0,0,.53-1.32,1.9,1.9,0,0,0-.46-1.23,1.48,1.48,0,0,0-1.1-.51Z"/><path class="cls-8" d="M10.47,24.56A1.64,1.64,0,0,1,9,22.87a1.8,1.8,0,0,1,.42-1.21,1.43,1.43,0,0,1,1.06-.52h0A1.55,1.55,0,0,1,12,22.81a1.62,1.62,0,0,1-1.46,1.75Z"/><path class="cls-10" d="M10.47,21.19a1.5,1.5,0,0,1,1.44,1.62,1.56,1.56,0,0,1-1.41,1.7h0A1.59,1.59,0,0,1,9,22.87a1.55,1.55,0,0,1,1.43-1.68h0m0-.1h0a1.48,1.48,0,0,0-1.1.54,1.85,1.85,0,0,0-.43,1.24,1.91,1.91,0,0,0,.47,1.22,1.46,1.46,0,0,0,1.1.52h0A1.66,1.66,0,0,0,12,22.81a1.59,1.59,0,0,0-1.54-1.72Z"/><path class="cls-8" d="M20.43,24.55a1.58,1.58,0,0,1-1.49-1.7,1.81,1.81,0,0,1,.49-1.3,1.35,1.35,0,0,1,1-.41h0A1.61,1.61,0,0,1,22,22.83a1.65,1.65,0,0,1-1.51,1.72Z"/><path class="cls-10" d="M20.42,21.19a1.56,1.56,0,0,1,1.48,1.64,1.61,1.61,0,0,1-1.46,1.67h0A1.53,1.53,0,0,1,19,22.85a1.51,1.51,0,0,1,1.43-1.66h0m0-.11v0h0a1.46,1.46,0,0,0-1,.43,1.87,1.87,0,0,0-.5,1.34,1.64,1.64,0,0,0,1.54,1.76h0A1.7,1.7,0,0,0,22,22.83a1.88,1.88,0,0,0-.46-1.24,1.51,1.51,0,0,0-1.11-.51Z"/><path class="cls-8" d="M15.42,28.4a1.64,1.64,0,0,1-1.5-1.69,1.85,1.85,0,0,1,.4-1.22A1.44,1.44,0,0,1,15.38,25h0a1.59,1.59,0,0,1,1.51,1.67,1.68,1.68,0,0,1-1.47,1.76Z"/><path class="cls-10" d="M15.42,25a1.53,1.53,0,0,1,1.46,1.61,1.63,1.63,0,0,1-1.42,1.71h0A1.59,1.59,0,0,1,14,26.71,1.54,1.54,0,0,1,15.39,25h0m0-.11v0h0a1.48,1.48,0,0,0-1.09.54,2,2,0,0,0,0,2.48,1.48,1.48,0,0,0,1.09.51h0a1.48,1.48,0,0,0,1.08-.56A1.91,1.91,0,0,0,17,26.64a1.63,1.63,0,0,0-1.56-1.72Z"/><path class="cls-8" d="M30.49,24.55A1.62,1.62,0,0,1,29,22.86a1.78,1.78,0,0,1,.42-1.22,1.38,1.38,0,0,1,1.06-.5h0A1.6,1.6,0,0,1,32,22.82a1.63,1.63,0,0,1-1.49,1.73Z"/><path class="cls-10" d="M30.49,21.19A1.54,1.54,0,0,1,32,22.82a1.58,1.58,0,0,1-1.44,1.68h0A1.57,1.57,0,0,1,29,22.86a1.53,1.53,0,0,1,1.43-1.67h0m0-.1h0a1.43,1.43,0,0,0-1.1.52,1.81,1.81,0,0,0-.43,1.25,1.67,1.67,0,0,0,1.55,1.75h0a1.46,1.46,0,0,0,1.1-.55,1.9,1.9,0,0,0,0-2.47,1.45,1.45,0,0,0-1.11-.5Z"/><path d="M27.62,17.27c0,1.05,0,2,0,3,0,.16-.41.38-.64.39a.66.66,0,0,1-.49-.44,18.06,18.06,0,0,1,0-2.44C26.5,17,27.13,17.4,27.62,17.27Z"/><path d="M9.48,17.35a7,7,0,0,1,.06.72c0,.27,0,.55,0,.8-1.23.26-1.31.14-1.07-1.59Z"/><path class="cls-8" d="M20.19,15.05a1.79,1.79,0,0,1-.72-.15A3.65,3.65,0,0,0,18,14.59a4.07,4.07,0,0,0-1.48.3,1.76,1.76,0,0,1-.66.11,2.74,2.74,0,0,1-1.16-.27,1.44,1.44,0,0,1-.82-1,1.55,1.55,0,0,1,.35-1.32,12.61,12.61,0,0,0,1-1.7l.12-.22A2.85,2.85,0,0,1,18,8.84h0a2.85,2.85,0,0,1,2.78,2.05,5.05,5.05,0,0,0,.46.84c.13.21.27.43.39.66a1.09,1.09,0,0,0,.08.15A1.59,1.59,0,0,1,22,14a2.43,2.43,0,0,1-1.27,1A1.24,1.24,0,0,1,20.19,15.05Z"/><path class="cls-10" d="M18,9.5a2.21,2.21,0,0,1,2.16,1.61,14.49,14.49,0,0,0,.89,1.58c.16.31.44.75.33,1a1.89,1.89,0,0,1-.94.69.66.66,0,0,1-.25,0,1.34,1.34,0,0,1-.46-.09A4.3,4.3,0,0,0,18,13.93a4.64,4.64,0,0,0-1.72.35,1.37,1.37,0,0,1-.42.07,2.1,2.1,0,0,1-.87-.21c-.53-.27-.66-.71-.23-1.29a14.73,14.73,0,0,0,1.15-2A2.2,2.2,0,0,1,18,9.5h0m0-1.32v0h0a3.5,3.5,0,0,0-3.22,2.06l-.11.22a12.18,12.18,0,0,1-.93,1.61,2.19,2.19,0,0,0-.46,1.86,2.08,2.08,0,0,0,1.16,1.38,3.24,3.24,0,0,0,1.46.35,2.36,2.36,0,0,0,.9-.16A3.38,3.38,0,0,1,18,15.25a2.92,2.92,0,0,1,1.2.26,2.56,2.56,0,0,0,1,.2,2.08,2.08,0,0,0,.8-.16,3.11,3.11,0,0,0,1.58-1.32,2.16,2.16,0,0,0-.28-2l-.08-.13a7.82,7.82,0,0,0-.41-.71,3.57,3.57,0,0,1-.4-.72A3.51,3.51,0,0,0,18,8.18Z"/><rect class="cls-5" x="13.54" y="8.36" width="1" height="1.51"/><rect class="cls-5" x="15.29" y="6.61" width="1" height="1.51"/><rect class="cls-5" x="18.94" y="6.61" width="1" height="1.51"/><rect class="cls-5" x="21.87" y="8.4" width="1" height="1.51"/></svg>